# xmcd CD database file
#
# Track frame offsets:
#	150
#	7113
#	34878
#	41250
#	55535
#	77140
#	93123
#	110625
#	139215
#	145958
#	148193
#	152900
#	163973
#	182055
#	210333
#	218718
#	235023
#	249313
#	276793
#	290708
#	312743
#	321503
#	326278
#
# Disc length: 4445 seconds
#
# Revision: 4
# Processed by: cddbd v1.5.2PL0 Copyright (c) Steve Scherf et al.
# Submitted via: CDex 1.70beta2
#
DISCID=57115b17
DTITLE=菊池俊輔 VPCG-84208 - 侍ジャイアンツ ミュージックファイル
DYEAR=1993
DGENRE=Anime
TTITLE0=松本茂之/侍ジャイアンツ (TVサイズ)
TTITLE1=サブタイトルBgm・殺人ノーコン、ズッコケ蛮ちゃん(C2A(T2),F10,F9,F13,F15,I4,I3,D1「侍ニッポン」)
TTITLE2=サムライ番馬蛮 (インストゥルメンタルI )(A6(T2))
TTITLE3=夢のスタジアム(G1,G3,G4)
TTITLE4=必殺のハイジャンプ魔球(F3,F11(T2),G8(T2),I5,F6)
TTITLE5=えび投げハイジャンプ敗れる(I7,I8,H7(T2),H8,F1)
TTITLE6=敗北のあとで(Mなし,F7,F8)
TTITLE7=傷だらけのサムライ魂(H10,A2,A4,A9,A5,A5のA,A11(T2))
TTITLE8=エンディング用Bgm(E4,E2,E1)
TTITLE9=予告用Bgm(C5)
TTITLE10=松本茂之/サムライ番場蛮 (TVサイズ)
TTITLE11=ロイヤルナイツ/王者!侍ジャイアンツ
TTITLE12=サブタイトルBgm・再起を期した失踪(C2のB,I1,I2,F5,F12,F14)
TTITLE13=新魔球誕生の夜明け(J4,J1(T2),G9,J3,J5)
TTITLE14=サムライ番場蛮 (インストゥルメンタルII)(A1(T2),TB(T2))
TTITLE15=嵐を呼ぶ大回転魔球(I6,J6,I9,G7,K6,I10)
TTITLE16=命を賭けた分身魔球(F2,F4,H9)
TTITLE17=日米ワールドシリーズの死闘(M15(T2),M6B,M7,M4)
TTITLE18=侍ジャイアンツ (インストゥルメンタル)(A8,TA(1コーラス),TA)
TTITLE19=世界に輝く侍ジャイアンツ(G2,G10,H1,H2,J7(T2))
TTITLE20=エンディング用Bgm(E6,E3,E5,A7)
TTITLE21=ロイヤルナイツ/行け!バンババン  (TVサイズ)
TTITLE22=子門真人/王者!侍ジャイアンツ (TVサイズ別テイク)
EXTD=YEAR: 1993
EXTT0=
EXTT1=
EXTT2=
EXTT3=
EXTT4=
EXTT5=
EXTT6=
EXTT7=
EXTT8=
EXTT9=
EXTT10=
EXTT11=
EXTT12=
EXTT13=
EXTT14=
EXTT15=
EXTT16=
EXTT17=
EXTT18=
EXTT19=
EXTT20=
EXTT21=
EXTT22=
PLAYORDER=
